<?xml version="1.0" encoding="utf-8"?>
<!-- Generator: Adobe Illustrator 15.1.0, SVG Export Plug-In . SVG Version: 6.00 Build 0)  -->
<!DOCTYPE svg PUBLIC "-//W3C//DTD SVG 1.1//EN" "http://www.w3.org/Graphics/SVG/1.1/DTD/svg11.dtd">
<svg version="1.1" id="Layer_1" xmlns="http://www.w3.org/2000/svg" xmlns:xlink="http://www.w3.org/1999/xlink" x="0px" y="0px"
	 width="53.5px" height="89.5px" viewBox="0 0 53.5 89.5" enable-background="new 0 0 53.5 89.5" xml:space="preserve">
<g>
	<g>
		<path fill="#A183B6" d="M39.029,6.108c-3.532-2.776-12.363-4.163-16.526-4.163c-5.298,0-19.428,0.883-20.311,1.136
			C1.31,3.333,2.104,4.56,2.57,4.342c0.467-0.218,2.65,0.126,3.28,0.126c0.631,0,2.271-0.212,2.271,0.757
			c0,0.504-0.126,1.514-0.126,1.514L7.812,29.781h3.344c3.532,0,7.969,0.094,17.654-0.082c3.786-0.069,12.616-5.551,14.13-10.975
			C44.454,13.299,41.916,8.376,39.029,6.108 M33.983,21.499c-1.289,2.836-3.248,4.224-5.677,5.424
			c-2.557,1.264-6.632,1.982-8.65,2.108c-2.019,0.126-3.636,0.248-3.719-0.531c-0.156-1.469-0.125-3.281-0.125-3.281
			s0.131-18.102,0.131-19.111c0-1.009,1.387-2.397,3.153-2.523c1.767-0.126,7.569,0.378,10.471,2.018
			c1.98,1.12,3.972,3.208,4.668,5.299C35.118,13.551,35.876,17.336,33.983,21.499"/>
	</g>
	<g>
		<path fill="#A183B6" d="M41.406,34c-3.312-2.407-6.625-3.375-9.343-4.032c-2.411-0.581-4.095-0.25-5.523-0.271
			c-1.394-0.019-24.978,0.127-24.978,0.127c0,0.15-0.268,0.099-0.281,0.331C1.261,30.507,1.543,31.143,2,31.219
			c0.757,0.126,2.65,0.244,3.406,0.282c1.282,0.062,2.337,0.848,2.337,1.604c0,0-0.146,22.581-0.252,25.231
			c-0.085,2.102-0.928,2.258-1.991,2.477c-2.218,0.457-3.001,0.584-2.875,1.594c1.388,0.126,9.344,0.188,16.977,0.093
			c6.971-0.087,15.712-2.687,19.428-5.046c4.29-2.724,7.159-5.735,7.814-11.735C47.451,40.166,44.438,36.202,41.406,34
			 M36.084,51.583c-1,2.083-3.833,5.667-8.25,7S19,60.5,16.917,60s-1.583-1.417-1.75-2.25l0.5-24.417c0-1.333,1.833-1.833,3-1.833
			s7.001-0.001,10.167,1.416s6.999,3.417,8.416,7.834C38.667,45.167,37.084,49.5,36.084,51.583"/>
	</g>
	<g>
		<path fill="#A183B6" d="M7.583,62.25L7.5,84.917c-0.167,0.75-1.584,0.833-2.334,1C4.417,86.083,3,86.333,2.5,86.417
			C2,86.5,1.833,87.25,1.833,87.583c0,0.334,5.583,0.084,6.25,0.084h13.083c0.334,0,0.584-0.5,0.084-1.084
			c-0.5-0.583-4.75-0.833-5.583-1.166c-0.833-0.334-1-0.417-1-1.834c0-1.416,0.417-21.166,0.417-21.166L7.583,62.25z"/>
		<path fill="#A183B6" d="M23.417,62.167c0,0,15.5,20.417,16.25,21.667s0.499,1.416,0.083,1.666s-4.25,0.917-4.583,0.917
			s-0.75,0.417-0.75,0.833c0,0.417,0.167,0.584,0.667,0.584S51,87.75,51.667,87.75s0.833-0.166,0.833-0.416s-0.25-1-1.083-1.084
			c-0.833-0.083-3.416-0.75-4.083-1.25S33,59.917,33,59.917s-3.25,1-4.833,1.417C26.584,61.75,23.417,62.167,23.417,62.167"/>
	</g>
</g>
</svg>
